<?xml version="1.0" encoding="utf-8"?>
<!-- Generator: Adobe Illustrator 13.0.0, SVG Export Plug-In . SVG Version: 6.00 Build 14948)  -->
<svg version="1.2" baseProfile="tiny" xmlns="http://www.w3.org/2000/svg" xmlns:xlink="http://www.w3.org/1999/xlink" x="0px"
	 y="0px" width="482px" height="527.575px" viewBox="0 0 482 527.575" xml:space="preserve">
<g id="Layer_2">
	<g id="layer2">
		<path id="rect2723" fill="#AFAFB0" stroke="#939393" stroke-width="5" d="M241,2.5c-93.759,0-169.238,68.358-169.238,153.273
			v170.302h47.011V155.773c0-61.327,54.513-110.698,122.227-110.698s122.226,49.372,122.226,110.698v170.302h47.012V155.773
			C410.237,70.858,334.762,2.5,241,2.5z"/>
	</g>
</g>
<g id="Layer_4">
	<path fill="#FCC311" stroke="#DCAC26" stroke-width="5" d="M429.813,515.075c0,5.522-4.944,10-11.042,10H63.229
		c-6.098,0-11.042-4.478-11.042-10v-332c0-5.523,4.943-10,11.042-10h355.542c6.098,0,11.042,4.477,11.042,10V515.075z"/>
</g>
<g id="Layer_3">
	<g>
		<g>
			<path fill="#FFFFFF" stroke="#333333" stroke-width="5" stroke-linecap="round" stroke-linejoin="round" d="M40.076,308.08
				C16.22,282.403,2.5,263.075,2.5,263.075s0-18,9.938-36s39.75-36,39.75-36s109.313,18,188.813,18c99.375,0,188.813-18,188.813-18
				s29.813,18,39.75,36s9.938,36,9.938,36s-13.72,19.327-37.576,45.005l17.701,170.995c0,0-99.375,27-218.625,27
				s-218.625-27-218.625-27L40.076,308.08z"/>
			<path fill="none" stroke="#333333" stroke-width="5" stroke-linecap="round" stroke-linejoin="round" d="M82,236.075"/>
		</g>
		<path fill="none" stroke="#333333" stroke-width="5" stroke-linecap="round" stroke-linejoin="round" d="M344.027,390.878
			c40.328-25.354,74.139-57.225,97.896-82.797"/>
		<path fill="none" stroke="#333333" stroke-width="5" stroke-linecap="round" stroke-linejoin="round" d="M344.027,390.878
			c-22.571,14.189-47.182,26.338-73.215,34.197c-9.896,2.988-19.859,5.658-29.813,8.057"/>
		<path fill="none" stroke="#333333" stroke-width="5" stroke-linecap="round" stroke-linejoin="round" d="M241,433.132
			c-99.674,24.02-198.237,20.063-215.847,19.109"/>
		<path fill="none" stroke="#333333" stroke-width="5" stroke-linecap="round" stroke-linejoin="round" d="M241,433.132
			c99.674,24.02,198.238,20.063,215.848,19.109"/>
		<path fill="none" stroke="#333333" stroke-width="5" stroke-linecap="round" stroke-linejoin="round" d="M137.973,390.878
			c-40.328-25.354-74.139-57.225-97.897-82.798"/>
		<path fill="none" stroke="#333333" stroke-width="5" stroke-linecap="round" stroke-linejoin="round" d="M344.027,390.878
			c49.151,6.773,90.246,7.412,107.226,7.326"/>
		<path fill="none" stroke="#333333" stroke-width="5" stroke-linecap="round" stroke-linejoin="round" d="M82,236.075
			c0,0,73.696,100.1,159,131.646"/>
		<path fill="none" stroke="#333333" stroke-width="5" stroke-linecap="round" stroke-linejoin="round" d="M400,236.076
			c0,0-73.695,100.099-159,131.646"/>
		<path fill="none" stroke="#333333" stroke-width="5" stroke-linecap="round" stroke-linejoin="round" d="M241,367.722
			c-3.297,1.219-6.609,2.35-9.938,3.354c-31.621,9.547-63.785,15.766-93.089,19.803"/>
		<path fill="none" stroke="#333333" stroke-width="5" stroke-linecap="round" stroke-linejoin="round" d="M30.746,398.204
			c16.98,0.086,58.075-0.553,107.227-7.326"/>
	</g>
</g>
</svg>
